<svg width="36" height="44" viewBox="0 0 36 44" fill="none" xmlns="http://www.w3.org/2000/svg">
<path d="M7.07391 33.2825C7.63275 32.4389 9.17886 32.6963 9.40239 32.7344C10.3338 32.9012 10.7995 33.373 12.1966 34.4406C12.9789 35.0316 13.7986 35.5749 14.5949 36.1515C16.4577 37.5146 19.7921 38.1103 22.6794 37.4002C26.5447 36.447 30.3215 32.2864 30.2889 27.7112C30.2099 25.1541 29.1903 22.7217 27.4341 20.9009C26.5027 20.0668 25.5714 19.5617 23.6294 18.9516L14.2782 16.0302C11.9497 15.301 11.4561 14.3383 11.1068 13.7616C9.96123 11.8791 10.5247 9.60584 10.7902 8.72893C11.4523 7.41557 12.3066 6.21342 13.3236 5.16408C13.3236 5.16408 19.1867 -0.855159 32.3472 1.95192C33.6651 2.22833 35.0157 2.73351 35.6071 3.89637C35.6909 4.06317 36.0495 4.78282 35.7654 5.2737C35.2625 6.15538 33.0551 5.68832 32.0399 5.52152C27.0849 4.69703 20.2624 5.96952 18.884 9.05777C18.2227 10.5352 18.9212 12.1842 19.0423 12.4606C20.6862 16.3114 26.1674 15.2057 30.1398 18.1415C34.8946 21.6539 37.0647 30.6327 33.7862 36.3136C29.2923 44.0962 16.0898 43.0096 10.0031 38.258C9.03848 37.5033 8.16878 36.6292 7.41387 35.6559C7.15308 35.1698 6.58493 34.026 7.07391 33.2825Z" fill="white"/>
<path d="M0 0.531705V43.7387C5.70466 43.9118 11.2943 42.0746 15.8337 38.5344C17.594 37.1381 24.002 31.8623 24.8682 22.6356C25.0777 20.4434 25.5155 12.2366 19.4801 5.92663C11.7635 -2.14669 0.600748 0.383964 0 0.531705Z" fill="white"/>
<path d="M3.646 4.62549V35.6034C7.591 35.6815 11.4073 34.1662 14.2685 31.3856C18.823 26.8676 18.7345 21.0438 18.7066 20.1097C18.5142 17.4578 17.7029 14.8919 16.3409 12.6273C12.2893 5.95516 4.86146 4.79706 3.646 4.62549Z" fill="#0E0E0E"/>
</svg>
