<svg width="233" height="47" viewBox="0 0 233 47" fill="none" xmlns="http://www.w3.org/2000/svg">
<path d="M55.0921 33.1666H47.3577V11.3484H55.156C57.3506 11.3484 59.2398 11.7852 60.8236 12.6588C62.4074 13.5253 63.6255 14.7717 64.4778 16.3982C65.3371 18.0246 65.7668 19.9706 65.7668 22.2362C65.7668 24.509 65.3371 26.4621 64.4778 28.0956C63.6255 29.7291 62.4003 30.9827 60.8023 31.8563C59.2114 32.7298 57.308 33.1666 55.0921 33.1666ZM51.9707 29.2142H54.9003C56.264 29.2142 57.411 28.9727 58.3414 28.4898C59.2789 27.9997 59.982 27.2433 60.4508 26.2206C60.9266 25.1908 61.1646 23.8626 61.1646 22.2362C61.1646 20.624 60.9266 19.3065 60.4508 18.2838C59.982 17.2611 59.2824 16.5082 58.3521 16.0253C57.4217 15.5423 56.2746 15.3009 54.911 15.3009H51.9707V29.2142ZM76.5561 33.4862C74.8728 33.4862 73.424 33.1453 72.2095 32.4635C71.0021 31.7746 70.0717 30.8016 69.4183 29.5445C68.7649 28.2803 68.4382 26.7852 68.4382 25.0594C68.4382 23.3761 68.7649 21.8989 69.4183 20.6276C70.0717 19.3563 70.9914 18.3655 72.1775 17.6553C73.3707 16.945 74.7698 16.5899 76.375 16.5899C77.4545 16.5899 78.4595 16.7639 79.3899 17.1119C80.3274 17.4528 81.1441 17.9678 81.8402 18.6567C82.5433 19.3456 83.0902 20.2121 83.4808 21.2561C83.8714 22.293 84.0667 23.5075 84.0667 24.8996V26.146H70.2492V23.3335H79.7947C79.7947 22.6801 79.6527 22.1013 79.3686 21.597C79.0845 21.0928 78.6903 20.6986 78.186 20.4145C77.6889 20.1233 77.11 19.9777 76.4495 19.9777C75.7606 19.9777 75.1498 20.1375 74.6171 20.4571C74.0916 20.7696 73.6796 21.1922 73.3813 21.7249C73.0831 22.2504 72.9304 22.8364 72.9233 23.4827V26.1567C72.9233 26.9663 73.0724 27.6659 73.3707 28.2554C73.6761 28.8449 74.1058 29.2994 74.6598 29.619C75.2137 29.9386 75.8707 30.0984 76.6306 30.0984C77.1349 30.0984 77.5965 30.0274 78.0156 29.8854C78.4346 29.7433 78.7933 29.5303 79.0916 29.2462C79.3899 28.9621 79.6171 28.6141 79.7734 28.2021L83.9708 28.4791C83.7578 29.4876 83.321 30.3683 82.6605 31.1212C82.0071 31.8669 81.1619 32.4493 80.125 32.8683C79.0951 33.2803 77.9055 33.4862 76.5561 33.4862ZM100.643 21.4692L96.4886 21.7249C96.4176 21.3698 96.2649 21.0501 96.0305 20.7661C95.7961 20.4749 95.4872 20.244 95.1036 20.0736C94.7272 19.896 94.2762 19.8073 93.7507 19.8073C93.0475 19.8073 92.4545 19.9564 91.9715 20.2547C91.4886 20.5459 91.2471 20.9365 91.2471 21.4266C91.2471 21.8172 91.4034 22.1474 91.7159 22.4173C92.0284 22.6872 92.5646 22.9038 93.3245 23.0672L96.2862 23.6638C97.8771 23.9905 99.0632 24.5161 99.8444 25.2405C100.626 25.9649 101.016 26.9166 101.016 28.0956C101.016 29.168 100.7 30.1091 100.068 30.9188C99.4431 31.7284 98.5838 32.3605 97.49 32.8151C96.4034 33.2625 95.1498 33.4862 93.7294 33.4862C91.5632 33.4862 89.8373 33.0352 88.5518 32.1332C87.2734 31.2242 86.5241 29.9884 86.3039 28.4259L90.7677 28.1915C90.9027 28.852 91.2294 29.3563 91.7478 29.7043C92.2663 30.0452 92.9304 30.2156 93.74 30.2156C94.5355 30.2156 95.1747 30.0629 95.6576 29.7575C96.1477 29.445 96.3963 29.0438 96.4034 28.5537C96.3963 28.1418 96.2223 27.8044 95.8813 27.5416C95.5404 27.2717 95.0149 27.0658 94.3046 26.9237L91.4708 26.3591C89.8728 26.0395 88.6832 25.4855 87.9019 24.6972C87.1278 23.9088 86.7407 22.9038 86.7407 21.6823C86.7407 20.6311 87.0248 19.7256 87.593 18.9656C88.1683 18.2057 88.9744 17.6198 90.0113 17.2078C91.0554 16.7959 92.2769 16.5899 93.6761 16.5899C95.7429 16.5899 97.3693 17.0267 98.5554 17.9003C99.7485 18.7739 100.445 19.9635 100.643 21.4692ZM103.874 33.1666V16.803H108.412V33.1666H103.874ZM106.154 14.6936C105.479 14.6936 104.9 14.4699 104.417 14.0224C103.942 13.5679 103.704 13.0246 103.704 12.3925C103.704 11.7675 103.942 11.2313 104.417 10.7838C104.9 10.3293 105.479 10.102 106.154 10.102C106.829 10.102 107.404 10.3293 107.88 10.7838C108.363 11.2313 108.604 11.7675 108.604 12.3925C108.604 13.0246 108.363 13.5679 107.88 14.0224C107.404 14.4699 106.829 14.6936 106.154 14.6936ZM119.42 39.6439C117.95 39.6439 116.689 39.4415 115.638 39.0367C114.594 38.6389 113.763 38.0956 113.145 37.4067C112.527 36.7178 112.126 35.9436 111.941 35.0842L116.139 34.5196C116.267 34.8463 116.469 35.1517 116.746 35.4358C117.023 35.7199 117.389 35.9472 117.843 36.1176C118.305 36.2952 118.866 36.384 119.527 36.384C120.514 36.384 121.327 36.1425 121.966 35.6595C122.613 35.1837 122.936 34.3847 122.936 33.2625V30.2689H122.744C122.545 30.7234 122.247 31.1531 121.849 31.558C121.451 31.9628 120.94 32.293 120.315 32.5487C119.69 32.8044 118.944 32.9323 118.078 32.9323C116.849 32.9323 115.73 32.6482 114.722 32.08C113.72 31.5047 112.921 30.6276 112.325 29.4486C111.735 28.2625 111.441 26.7639 111.441 24.9528C111.441 23.0992 111.742 21.5509 112.346 20.308C112.95 19.0651 113.752 18.1347 114.754 17.5168C115.762 16.8989 116.867 16.5899 118.067 16.5899C118.983 16.5899 119.75 16.7462 120.368 17.0587C120.986 17.3641 121.483 17.7476 121.86 18.2092C122.243 18.6638 122.538 19.1112 122.744 19.5516H122.914V16.803H127.421V33.3264C127.421 34.7185 127.08 35.8832 126.398 36.8207C125.716 37.7582 124.772 38.4614 123.564 38.9301C122.364 39.406 120.983 39.6439 119.42 39.6439ZM119.516 29.5232C120.247 29.5232 120.865 29.3421 121.37 28.9798C121.881 28.6105 122.272 28.0849 122.542 27.4031C122.818 26.7142 122.957 25.8903 122.957 24.9315C122.957 23.9727 122.822 23.1418 122.552 22.4386C122.282 21.7284 121.892 21.178 121.38 20.7874C120.869 20.3967 120.247 20.2014 119.516 20.2014C118.77 20.2014 118.142 20.4038 117.63 20.8087C117.119 21.2064 116.732 21.7604 116.469 22.4706C116.206 23.1808 116.075 24.0011 116.075 24.9315C116.075 25.8761 116.206 26.6929 116.469 27.3818C116.739 28.0636 117.126 28.5928 117.63 28.9692C118.142 29.3385 118.77 29.5232 119.516 29.5232ZM135.571 23.7064V33.1666H131.032V16.803H135.358V19.6901H135.549C135.912 18.7384 136.519 17.9855 137.371 17.4315C138.223 16.8705 139.257 16.5899 140.471 16.5899C141.608 16.5899 142.598 16.8385 143.443 17.3357C144.289 17.8328 144.946 18.543 145.414 19.4663C145.883 20.3825 146.117 21.4763 146.117 22.7476V33.1666H141.579V23.5573C141.586 22.5558 141.331 21.7746 140.812 21.2135C140.294 20.6453 139.58 20.3612 138.671 20.3612C138.06 20.3612 137.52 20.4926 137.051 20.7554C136.59 21.0182 136.228 21.4017 135.965 21.906C135.709 22.4031 135.578 23.0033 135.571 23.7064ZM161.616 17.6233C161.53 16.7639 161.165 16.0963 160.518 15.6205C159.872 15.1446 158.995 14.9067 157.887 14.9067C157.134 14.9067 156.498 15.0132 155.98 15.2263C155.461 15.4323 155.064 15.7199 154.787 16.0892C154.517 16.4585 154.382 16.8776 154.382 17.3463C154.368 17.7369 154.449 18.0778 154.627 18.369C154.812 18.6602 155.064 18.9124 155.383 19.1254C155.703 19.3314 156.072 19.5125 156.491 19.6688C156.91 19.8179 157.358 19.9457 157.834 20.0523L159.794 20.521C160.746 20.7341 161.619 21.0182 162.415 21.3733C163.21 21.7284 163.899 22.1652 164.481 22.6837C165.064 23.2021 165.515 23.8129 165.834 24.5161C166.161 25.2192 166.328 26.0253 166.335 26.9344C166.328 28.2696 165.987 29.4273 165.312 30.4074C164.645 31.3804 163.679 32.1368 162.415 32.6766C161.157 33.2092 159.641 33.4756 157.866 33.4756C156.104 33.4756 154.57 33.2057 153.263 32.6659C151.964 32.1261 150.948 31.3271 150.216 30.2689C149.492 29.2036 149.112 27.8861 149.076 26.3165H153.54C153.59 27.048 153.799 27.6588 154.169 28.1489C154.545 28.6318 155.046 28.9976 155.671 29.2462C156.303 29.4876 157.017 29.6084 157.812 29.6084C158.594 29.6084 159.272 29.4948 159.847 29.2675C160.429 29.0402 160.88 28.7242 161.2 28.3193C161.52 27.9145 161.679 27.4493 161.679 26.9237C161.679 26.4337 161.534 26.0217 161.243 25.6879C160.959 25.3541 160.54 25.07 159.986 24.8357C159.439 24.6013 158.768 24.3882 157.972 24.1965L155.596 23.5999C153.757 23.1524 152.304 22.4528 151.239 21.5011C150.174 20.5494 149.645 19.2675 149.652 17.6553C149.645 16.3342 149.996 15.1801 150.706 14.1929C151.424 13.2057 152.407 12.4351 153.657 11.8811C154.907 11.3271 156.328 11.0501 157.919 11.0501C159.538 11.0501 160.951 11.3271 162.159 11.8811C163.373 12.4351 164.318 13.2057 164.993 14.1929C165.667 15.1801 166.015 16.3236 166.037 17.6233H161.616ZM169.353 33.1666V16.803H173.891V33.1666H169.353ZM171.632 14.6936C170.958 14.6936 170.379 14.4699 169.896 14.0224C169.42 13.5679 169.182 13.0246 169.182 12.3925C169.182 11.7675 169.42 11.2313 169.896 10.7838C170.379 10.3293 170.958 10.102 171.632 10.102C172.307 10.102 172.882 10.3293 173.358 10.7838C173.841 11.2313 174.083 11.7675 174.083 12.3925C174.083 13.0246 173.841 13.5679 173.358 14.0224C172.882 14.4699 172.307 14.6936 171.632 14.6936ZM186.23 16.803V20.2121H176.376V16.803H186.23ZM178.613 12.8825H183.151V28.1382C183.151 28.5573 183.215 28.884 183.343 29.1183C183.471 29.3456 183.649 29.5054 183.876 29.5977C184.11 29.6901 184.38 29.7362 184.686 29.7362C184.899 29.7362 185.112 29.7185 185.325 29.683C185.538 29.6403 185.701 29.6084 185.815 29.5871L186.529 32.9642C186.301 33.0352 185.982 33.1169 185.57 33.2092C185.158 33.3087 184.657 33.369 184.068 33.3903C182.974 33.433 182.015 33.2874 181.191 32.9536C180.374 32.6198 179.739 32.1013 179.284 31.3982C178.83 30.695 178.606 29.8073 178.613 28.7348V12.8825ZM196.468 33.4862C194.785 33.4862 193.336 33.1453 192.122 32.4635C190.914 31.7746 189.984 30.8016 189.33 29.5445C188.677 28.2803 188.35 26.7852 188.35 25.0594C188.35 23.3761 188.677 21.8989 189.33 20.6276C189.984 19.3563 190.904 18.3655 192.09 17.6553C193.283 16.945 194.682 16.5899 196.287 16.5899C197.367 16.5899 198.372 16.7639 199.302 17.1119C200.239 17.4528 201.056 17.9678 201.752 18.6567C202.455 19.3456 203.002 20.2121 203.393 21.2561C203.784 22.293 203.979 23.5075 203.979 24.8996V26.146H190.161V23.3335H199.707C199.707 22.6801 199.565 22.1013 199.281 21.597C198.997 21.0928 198.602 20.6986 198.098 20.4145C197.601 20.1233 197.022 19.9777 196.362 19.9777C195.673 19.9777 195.062 20.1375 194.529 20.4571C194.004 20.7696 193.592 21.1922 193.293 21.7249C192.995 22.2504 192.842 22.8364 192.835 23.4827V26.1567C192.835 26.9663 192.985 27.6659 193.283 28.2554C193.588 28.8449 194.018 29.2994 194.572 29.619C195.126 29.9386 195.783 30.0984 196.543 30.0984C197.047 30.0984 197.509 30.0274 197.928 29.8854C198.347 29.7433 198.705 29.5303 199.004 29.2462C199.302 28.9621 199.529 28.6141 199.686 28.2021L203.883 28.4791C203.67 29.4876 203.233 30.3683 202.573 31.1212C201.919 31.8669 201.074 32.4493 200.037 32.8683C199.007 33.2803 197.818 33.4862 196.468 33.4862ZM220.556 21.4692L216.401 21.7249C216.33 21.3698 216.177 21.0501 215.943 20.7661C215.708 20.4749 215.399 20.244 215.016 20.0736C214.639 19.896 214.188 19.8073 213.663 19.8073C212.96 19.8073 212.367 19.9564 211.884 20.2547C211.401 20.5459 211.159 20.9365 211.159 21.4266C211.159 21.8172 211.315 22.1474 211.628 22.4173C211.94 22.6872 212.477 22.9038 213.237 23.0672L216.198 23.6638C217.789 23.9905 218.975 24.5161 219.757 25.2405C220.538 25.9649 220.928 26.9166 220.928 28.0956C220.928 29.168 220.612 30.1091 219.98 30.9188C219.355 31.7284 218.496 32.3605 217.402 32.8151C216.315 33.2625 215.062 33.4862 213.641 33.4862C211.475 33.4862 209.749 33.0352 208.464 32.1332C207.186 31.2242 206.436 29.9884 206.216 28.4259L210.68 28.1915C210.815 28.852 211.141 29.3563 211.66 29.7043C212.178 30.0452 212.842 30.2156 213.652 30.2156C214.448 30.2156 215.087 30.0629 215.57 29.7575C216.06 29.445 216.308 29.0438 216.315 28.5537C216.308 28.1418 216.134 27.8044 215.793 27.5416C215.453 27.2717 214.927 27.0658 214.217 26.9237L211.383 26.3591C209.785 26.0395 208.595 25.4855 207.814 24.6972C207.04 23.9088 206.653 22.9038 206.653 21.6823C206.653 20.6311 206.937 19.7256 207.505 18.9656C208.08 18.2057 208.886 17.6198 209.923 17.2078C210.967 16.7959 212.189 16.5899 213.588 16.5899C215.655 16.5899 217.281 17.0267 218.467 17.9003C219.661 18.7739 220.357 19.9635 220.556 21.4692Z" fill="white"/>
<path d="M7.07391 34.2825C7.63275 33.4389 9.17886 33.6963 9.40239 33.7344C10.3338 33.9012 10.7995 34.373 12.1966 35.4406C12.9789 36.0316 13.7986 36.5749 14.5949 37.1515C16.4577 38.5146 19.7921 39.1103 22.6794 38.4002C26.5447 37.447 30.3215 33.2864 30.2889 28.7112C30.2099 26.1541 29.1903 23.7217 27.4341 21.9009C26.5027 21.0668 25.5714 20.5617 23.6294 19.9516L14.2782 17.0302C11.9497 16.301 11.4561 15.3383 11.1068 14.7616C9.96123 12.8791 10.5247 10.6058 10.7902 9.72893C11.4523 8.41557 12.3066 7.21342 13.3236 6.16408C13.3236 6.16408 19.1867 0.144841 32.3472 2.95192C33.6651 3.22833 35.0157 3.73351 35.6071 4.89637C35.6909 5.06317 36.0495 5.78282 35.7654 6.2737C35.2625 7.15538 33.0551 6.68832 32.0399 6.52152C27.0849 5.69703 20.2624 6.96952 18.884 10.0578C18.2227 11.5352 18.9212 13.1842 19.0423 13.4606C20.6862 17.3114 26.1674 16.2057 30.1398 19.1415C34.8946 22.6539 37.0647 31.6327 33.7862 37.3136C29.2923 45.0962 16.0898 44.0096 10.0031 39.258C9.03848 38.5033 8.16878 37.6292 7.41387 36.6559C7.15308 36.1698 6.58493 35.026 7.07391 34.2825Z" fill="white"/>
<path d="M0 1.5317V44.7387C5.70466 44.9118 11.2943 43.0746 15.8337 39.5344C17.594 38.1381 24.002 32.8623 24.8682 23.6356C25.0777 21.4434 25.5155 13.2366 19.4801 6.92663C11.7635 -1.14669 0.600748 1.38396 0 1.5317Z" fill="white"/>
<path d="M3.646 5.62549V36.6034C7.591 36.6815 11.4073 35.1662 14.2685 32.3856C18.823 27.8676 18.7345 22.0438 18.7066 21.1097C18.5142 18.4578 17.7029 15.8919 16.3409 13.6273C12.2893 6.95516 4.86146 5.79706 3.646 5.62549Z" fill="#0E0E0E"/>
</svg>
